
<svg xmlns="http://www.w3.org/2000/svg" version="1.1" xmlns:xlink="http://www.w3.org/1999/xlink" preserveAspectRatio="none" x="0px" y="0px" width="662px" height="97px" viewBox="0 0 662 97">
<defs>
<g id="Layer1_0_FILL">
<path fill="#FFFFFF" stroke="none" d="
M 517.2 38.3
L 517.2 29.05 513.8 29.05 513.8 38.3 517.2 38.3
M 653.4 71.85
Q 651.2 70.35 648.15 69.5
L 636.2 66.75
Q 633.45 66.15 631.25 65.1 629.05 64.05 627.65 62.3 626.3 60.65 626.3 57.85 626.3 55.4 627.55 53.7 628.75 52 630.65 50.9 632.55 49.85 634.95 49.4
L 639.65 48.9
Q 642.55 48.9 645.05 49.6 647.6 50.3 649.45 51.7 651.25 53.1 652.3 55.35 653.35 57.55 653.35 60.75
L 656.75 60.75
Q 656.75 56.8 655.45 53.95 654.15 51.2 651.85 49.4 649.55 47.6 646.4 46.75 643.25 45.95 639.65 45.95 636.7 45.95 633.7 46.55 630.75 47.1 628.35 48.5 625.95 49.85 624.4 52.1 622.95 54.4 622.95 57.85 622.95 60.2 623.5 62.05 624.05 63.85 625.25 65.1 627.6 67.55 631.15 68.9 634.7 70.25 638.8 70.95
L 646.45 72.7
Q 650 73.8 652.35 75.75 654.7 77.75 654.7 81.6 654.7 84.55 653.25 86.5 651.8 88.4 649.6 89.5 647.4 90.6 644.8 91
L 640 91.4
Q 636.85 91.4 634.2 90.55 631.45 89.6 629.45 87.85 627.4 86.1 626.15 83.65 624.9 81.15 624.75 77.9
L 621.3 77.9
Q 621.4 81.95 622.85 85.05 624.25 88.05 626.8 90.2 629.3 92.3 632.7 93.35 636.05 94.4 640 94.4 643.05 94.4 646.25 93.8 649.45 93.2 652.05 91.7 654.7 90.2 656.35 87.8 658.1 85.4 658.1 81.6 658.1 78 656.85 75.7 655.6 73.3 653.4 71.85
M 374.75 47.05
L 371.3 47.05 371.3 93.3 374.75 93.3 374.75 68.05 375.15 63.5 376.15 60.1 377.7 57.3 379.9 54.65
Q 383.1 51.65 386.55 50.7 390 49.85 392.7 50.2
L 392.7 46.75
Q 389.55 46.65 386.65 47.45 383.7 48.2 381.3 49.65 378.95 51.1 377.3 53.1 375.6 55.05 375 57.3
L 374.75 57.3 374.75 47.05
M 432.9 47.05
L 429.5 47.05 429.5 72.05
Q 429.5 76.3 428.4 79.85 427.25 83.4 425.1 85.95 422.95 88.55 419.8 89.95 416.75 91.4 412.85 91.4 408.1 91.4 405.5 89.7 402.85 88 401.55 85.6 400.25 83.25 400 80.65
L 399.75 47.05 396.3 47.05 396.3 75.7 396.9 83.05
Q 397.35 85.15 398.4 87.15 399.4 89.15 401.25 90.8 403.05 92.4 405.9 93.4 408.7 94.4 412.75 94.4 415.45 94.4 418.05 93.65 420.7 92.95 422.9 91.5 425.1 90.05 426.75 88.05 428.45 86 429.3 83.4
L 429.5 83.4 429.5 93.3 432.9 93.3 432.9 47.05
M 469.25 46.9
Q 465.95 45.95 462.15 45.95 457 45.95 453.05 47.85 449.1 49.75 446.45 52.95 443.7 56.2 442.3 60.55 440.95 64.85 440.95 69.7 440.95 74.6 442.1 79 443.35 83.5 445.9 86.95 448.5 90.3 452.5 92.35 454.45 93.4 456.9 93.85 459.3 94.4 462.15 94.4 465.85 94.4 469.2 93.2 472.5 92.05 475.15 89.85 477.7 87.65 479.45 84.4 481.15 81.15 481.7 77
L 478.3 77
Q 477.8 80.15 476.5 82.8 475.15 85.5 473 87.35 470.9 89.25 468.15 90.3 465.4 91.4 462.15 91.4 457.65 91.4 454.35 89.8 451 88.15 448.75 85.25 446.5 82.3 445.4 78.35 444.3 74.4 444.3 69.7 444.3 65.75 445.5 62 446.7 58.3 448.95 55.4 451.2 52.45 454.5 50.65 457.85 48.9 462.15 48.9 465.35 48.9 468.05 49.75 470.8 50.55 472.9 52.1 474.95 53.6 476.25 55.95 477.55 58.3 477.8 61.35
L 481.25 61.35
Q 480.9 57.5 479.25 54.55 477.65 51.65 475.1 49.75 472.5 47.85 469.25 46.9
M 517.2 47.05
L 513.8 47.05 513.8 93.3 517.2 93.3 517.2 47.05
M 496.6 47.05
L 496.6 32.65 493.2 32.65 493.2 47.05 484.65 47.05 484.65 50 493.2 50 493.2 82.3
Q 493 86.25 494.15 88.5 495.3 90.8 497.15 91.9 499.05 93.05 501.55 93.25
L 506.6 93.3 506.6 90.3 502.3 90.2
Q 500.45 90.05 499.2 89.2 497.9 88.35 497.25 86.7 496.6 85.15 496.6 82.3
L 496.6 50 506.7 50 506.7 47.05 496.6 47.05
M 568.4 70.2
Q 568.4 65.2 567 60.85 565.65 56.45 562.9 53.2 560.25 49.85 556.25 47.9 554.3 46.95 552 46.45
L 547.2 45.95
Q 542.05 45.95 538.1 47.9 534.1 49.85 531.4 53.2 528.7 56.45 527.3 60.85 525.95 65.2 525.95 70.2 525.95 75.1 527.3 79.55 528.7 83.95 531.4 87.25 534.1 90.55 538.1 92.45 542.05 94.4 547.2 94.4
L 552 93.9
Q 554.3 93.45 556.25 92.45 560.25 90.55 562.9 87.25 565.65 83.95 567 79.55 568.4 75.1 568.4 70.2
M 563.85 62.2
Q 564.95 66.05 564.95 70.2 564.95 74.3 563.85 78.15 562.65 81.95 560.4 84.95 558.15 87.9 554.8 89.65 551.5 91.4 547.2 91.4 542.85 91.4 539.55 89.65 536.2 87.9 533.95 84.95 531.7 81.95 530.5 78.15 529.35 74.3 529.35 70.2 529.35 66 530.5 62.2 531.7 58.35 533.95 55.4 536.2 52.45 539.55 50.65 542.85 48.9 547.2 48.9 551.5 48.9 554.8 50.65 558.15 52.45 560.4 55.4 562.65 58.35 563.85 62.2
M 603.45 46.95
Q 600.6 45.95 596.55 45.95 593.85 45.95 591.25 46.65 588.6 47.4 586.4 48.85 584.25 50.3 582.55 52.3 580.9 54.3 580 56.95
L 579.85 56.95 579.85 47.05 576.4 47.05 576.4 93.3 579.85 93.3 579.85 68.3
Q 579.85 64.05 580.95 60.5 582.05 56.95 584.25 54.35 586.4 51.8 589.45 50.35 592.5 48.9 596.45 48.9 601.15 48.9 603.8 50.65 606.45 52.35 607.75 54.7 609.05 57.15 609.3 59.75
L 609.6 64.05 609.6 93.3 613 93.3 612.9 61.3 612.4 57.3
Q 611.95 55.25 610.9 53.2 609.9 51.2 608.1 49.55 606.3 47.95 603.45 46.95
M 351.5 47.05
L 342.95 47.05 342.95 50 351.5 50 351.5 82.3
Q 351.3 86.25 352.45 88.5 353.6 90.8 355.45 91.9 357.35 93.05 359.85 93.25
L 364.9 93.3 364.9 90.3 360.6 90.2
Q 358.75 90.05 357.5 89.2 356.2 88.35 355.55 86.7 354.9 85.15 354.9 82.3
L 354.9 50 365 50 365 47.05 354.9 47.05 354.9 32.65 351.5 32.65 351.5 47.05
M 333.5 49.4
Q 331.2 47.6 328.05 46.75 324.9 45.95 321.3 45.95 318.35 45.95 315.35 46.55 312.4 47.1 310 48.5 307.6 49.85 306.05 52.1 304.6 54.4 304.6 57.85 304.6 60.2 305.15 62.05 305.7 63.85 306.9 65.1 309.25 67.55 312.8 68.9 316.35 70.25 320.45 70.95
L 328.1 72.7
Q 331.65 73.8 334 75.75 336.35 77.75 336.35 81.6 336.35 84.55 334.9 86.5 333.45 88.4 331.25 89.5 329.05 90.6 326.45 91
L 321.65 91.4
Q 318.5 91.4 315.85 90.55 313.1 89.6 311.1 87.85 309.05 86.1 307.8 83.65 306.55 81.15 306.4 77.9
L 302.95 77.9
Q 303.05 81.95 304.5 85.05 305.9 88.05 308.45 90.2 310.95 92.3 314.35 93.35 317.7 94.4 321.65 94.4 324.7 94.4 327.9 93.8 331.1 93.2 333.7 91.7 336.35 90.2 338 87.8 339.75 85.4 339.75 81.6 339.75 78 338.5 75.7 337.25 73.3 335.05 71.85 332.85 70.35 329.8 69.5
L 317.85 66.75
Q 315.1 66.15 312.9 65.1 310.7 64.05 309.3 62.3 307.95 60.65 307.95 57.85 307.95 55.4 309.2 53.7 310.4 52 312.3 50.9 314.2 49.85 316.6 49.4
L 321.3 48.9
Q 324.2 48.9 326.7 49.6 329.25 50.3 331.1 51.7 332.9 53.1 333.95 55.35 335 57.55 335 60.75
L 338.4 60.75
Q 338.4 56.8 337.1 53.95 335.8 51.2 333.5 49.4
M 261.5 47.05
L 258.05 47.05 258.05 93.3 261.5 93.3 261.5 68.3
Q 261.5 64.05 262.6 60.5 263.7 56.95 265.9 54.35 268.05 51.8 271.1 50.35 274.15 48.9 278.1 48.9 282.8 48.9 285.45 50.65 288.1 52.35 289.4 54.7 290.7 57.15 290.95 59.75
L 291.25 64.05 291.25 93.3 294.65 93.3 294.55 61.3 294.05 57.3
Q 293.6 55.25 292.55 53.2 291.55 51.2 289.75 49.55 287.95 47.95 285.1 46.95 282.25 45.95 278.2 45.95 275.5 45.95 272.9 46.65 270.25 47.4 268.05 48.85 265.9 50.3 264.2 52.3 262.55 54.3 261.65 56.95
L 261.5 56.95 261.5 47.05
M 250.05 70.2
Q 250.05 65.2 248.65 60.85 247.3 56.45 244.55 53.2 241.9 49.85 237.9 47.9 235.95 46.95 233.65 46.45
L 228.85 45.95
Q 223.7 45.95 219.75 47.9 215.75 49.85 213.05 53.2 210.35 56.45 208.95 60.85 207.6 65.2 207.6 70.2 207.6 75.1 208.95 79.55 210.35 83.95 213.05 87.25 215.75 90.55 219.75 92.45 223.7 94.4 228.85 94.4
L 233.65 93.9
Q 235.95 93.45 237.9 92.45 241.9 90.55 244.55 87.25 247.3 83.95 248.65 79.55 250.05 75.1 250.05 70.2
M 245.5 62.2
Q 246.6 66.05 246.6 70.2 246.6 74.3 245.5 78.15 244.3 81.95 242.05 84.95 239.8 87.9 236.45 89.65 233.15 91.4 228.85 91.4 224.5 91.4 221.2 89.65 217.85 87.9 215.6 84.95 213.35 81.95 212.15 78.15 211 74.3 211 70.2 211 66 212.15 62.2 213.35 58.35 215.6 55.4 217.85 52.45 221.2 50.65 224.5 48.9 228.85 48.9 233.15 48.9 236.45 50.65 239.8 52.45 242.05 55.4 244.3 58.35 245.5 62.2
M 182.2 45.95
Q 177.05 45.95 173.1 47.85 169.15 49.75 166.5 52.95 163.75 56.2 162.35 60.55 161 64.85 161 69.7 161 74.6 162.15 79 163.4 83.5 165.95 86.95 168.55 90.3 172.55 92.35 174.5 93.4 176.95 93.85 179.35 94.4 182.2 94.4 185.9 94.4 189.25 93.2 192.55 92.05 195.2 89.85 197.75 87.65 199.5 84.4 201.2 81.15 201.75 77
L 198.35 77
Q 197.85 80.15 196.55 82.8 195.2 85.5 193.05 87.35 190.95 89.25 188.2 90.3 185.45 91.4 182.2 91.4 177.7 91.4 174.4 89.8 171.05 88.15 168.8 85.25 166.55 82.3 165.45 78.35 164.35 74.4 164.35 69.7 164.35 65.75 165.55 62 166.75 58.3 169 55.4 171.25 52.45 174.55 50.65 177.9 48.9 182.2 48.9 185.4 48.9 188.1 49.75 190.85 50.55 192.95 52.1 195 53.6 196.3 55.95 197.6 58.3 197.85 61.35
L 201.3 61.35
Q 200.95 57.5 199.3 54.55 197.7 51.65 195.15 49.75 192.55 47.85 189.3 46.9 186 45.95 182.2 45.95
M 139.8 44.55
L 128.8 44.55 128.8 63.7 108.6 63.7 108.6 44.55 97.55 44.55 97.55 94.5 108.6 94.5 108.6 72.95 128.8 72.95 128.8 94.5 139.8 94.5 139.8 44.55
M 87.45 84.15
Q 87.95 81.2 87.95 78.75
L 87.95 44.55 76.95 44.55 76.85 81.05
Q 76.75 82.45 76.2 83.7 75.7 84.9 74.5 85.7 73.3 86.45 71.15 86.45 69.15 86.45 67.95 85.8 66.75 85.2 66 84.1 65.35 83 65.05 81.5
L 64.75 75.85 54.85 75.85 55.2 84.05
Q 55.5 85.8 56.25 87.25 57.65 90.15 59.95 92 62.25 93.9 65.2 94.75 68.15 95.65 71.3 95.65 76.9 95.65 80.15 93.9 83.45 92.2 85.25 89.65 86.95 87.1 87.45 84.15
M 37.05 44.55
Q 33.35 43.35 29.25 43.35 23.5 43.35 18.9 45.35 16.65 46.4 14.7 47.8 12.75 49.2 11.15 50.95 9.6 52.75 8.4 54.85 7.2 56.95 6.35 59.35 4.65 64.1 4.65 69.7 4.65 75.2 6.35 79.9 8 84.6 11.15 88.15 12.75 89.9 14.7 91.25 16.65 92.6 18.9 93.6 23.5 95.65 29.25 95.65 33.85 95.65 37.7 94.25 41.55 92.85 44.4 90.15 47.3 87.5 49.05 83.75 50.2 81.2 51.2 75.25
L 40.55 75.25
Q 39.95 80.3 37.1 83.35 35.7 84.9 33.7 85.7 31.75 86.45 29.25 86.45 25.5 86.45 22.9 85 20.35 83.6 18.7 81.2 17.1 78.8 16.4 75.85 15.65 72.85 15.65 69.7 15.65 66.45 16.4 63.35 17.1 60.25 18.7 57.85 20.35 55.45 22.9 54 25.5 52.55 29.25 52.55 31.25 52.55 33.1 53.25 35 53.9 36.45 55.1 37.9 56.3 38.9 57.85 39.85 59.45 40.15 61.3
L 50.75 61.3
Q 50.3 56.95 48.4 53.6 46.55 50.25 43.65 48 40.75 45.75 37.05 44.55 Z"/>

<path fill="#F9C124" stroke="none" d="
M 76.05 13.25
L 68 13.25 68 19.5 42.5 0 2 31.05 6.45 36.95 42.5 9.3 78.55 36.95 83.05 31.05 76.05 25.7 76.05 13.25 Z"/>
</g>
</defs>

<g transform="matrix( 1, 0, 0, 1, 0,0) ">
<use xlink:href="#Layer1_0_FILL"/>
</g>
</svg>
